<svg width="125" height="113" viewBox="0 0 125 113" fill="none" xmlns="http://www.w3.org/2000/svg">
<path d="M67.5597 0.0696407C66.9033 0.211569 65.0937 1.7373 47.6187 16.7817C37.8788 25.1555 24.644 36.6872 12.8639 47.0479C12.4001 47.4665 12.1319 48.0594 12.1238 48.6841L12.0833 51.8203L12.0417 55.0355C12.0367 55.424 12.4639 55.6638 12.7929 55.4572C14.638 54.304 17.5298 53.0799 19.5877 52.5477C22.1602 51.909 23.3311 51.7138 26.3294 51.4655L27.4388 51.3709C28.206 51.3054 28.9341 51.0038 29.5228 50.5074C30.0195 50.0817 31.7404 48.5382 33.3371 47.1012C44.7801 36.7581 66.1049 17.9171 67.5242 16.8882C67.8968 16.6043 68.2161 16.4979 68.5 16.5688C68.908 16.6753 75.1174 21.9266 81.4155 27.4796C83.1187 28.9876 85.354 30.9568 86.383 31.8616C87.412 32.7664 90.4812 35.4808 93.2134 37.8936C95.9455 40.3063 99.4937 43.4465 101.108 44.8835C104.035 47.4737 104.727 48.0769 109.766 52.6009C111.483 54.1601 112.462 56.3718 112.462 58.6914V83.5058V111.365C112.462 111.758 112.623 112.134 112.906 112.406C113.178 112.689 113.554 112.849 113.947 112.849H118.53C121.386 112.849 123.905 112.796 124.101 112.743C124.314 112.69 124.58 112.441 124.686 112.211C124.988 111.554 124.952 48.5382 124.651 47.8995C124.42 47.4028 124.172 47.1721 116.117 40.1999C113.19 37.6629 108.879 33.9196 106.537 31.8793C104.177 29.8391 98.3583 24.8184 93.5682 20.7202C88.7958 16.6043 83.917 12.4174 82.7461 11.4062C77.8673 7.16606 70.6467 1.00992 69.8838 0.424462C69.4225 0.0696407 68.2516 -0.10777 67.5597 0.0696407Z" fill="#DE6333"/>
<path d="M25.1767 57.8522C16.182 58.7393 7.98556 64.1503 3.53254 72.1515C-0.228575 78.9108 -1.02693 87.0895 1.33264 94.3455C2.78741 98.8163 5.92759 103.482 9.47581 106.445C11.4273 108.077 12.5982 108.822 15.0465 110.082C22.2672 113.754 31.4925 113.985 39.0148 110.632C41.8356 109.39 43.6097 108.255 46.2354 106.055C47.7256 104.777 48.2047 104.245 53.0835 98.1244C54.6624 96.1196 57.3236 92.8021 58.9913 90.7618C62.8766 85.9718 62.7879 86.096 62.983 84.6944C63.3378 82.1929 64.1717 79.4431 65.0587 77.8996C66.9038 74.6707 69.7601 72.3112 73.4148 70.9983C74.9228 70.4661 75.3663 70.3951 77.3888 70.3064C78.7903 70.2532 80.0854 70.3064 80.7596 70.4483C86.3835 71.5483 90.6414 75.3804 92.451 81.0043C93.001 82.6719 93.0365 82.9203 93.0365 85.4395C93.0365 87.9588 93.001 88.2071 92.4687 89.8748C91.8833 91.7199 90.8188 93.6182 89.5592 95.1261C87.9802 97.0244 85.2304 98.7631 82.4805 99.6324C80.4403 100.271 76.8743 100.448 74.6567 99.9872C70.9665 99.2421 67.8973 97.4502 65.4668 94.6294C64.9345 94.0085 64.4378 93.5117 64.3846 93.5117C64.3313 93.5117 63.7104 94.2036 63.0185 95.0552C62.3266 95.9245 60.588 98.0357 59.1687 99.792C57.7494 101.531 56.5785 103.039 56.5785 103.127C56.5785 103.234 57.3236 104.05 58.2284 104.937C62.5217 109.124 67.8086 111.75 73.8761 112.69C75.934 113.009 80.6354 112.974 82.5692 112.619C91.7591 110.951 99.2458 105.31 103.06 97.1841C106.555 89.6974 106.449 80.5607 102.794 73.0563C100.914 69.242 97.5782 65.3034 94.1364 62.8729C92.1849 61.5069 88.9205 59.8215 86.8271 59.1296C81.5047 57.3555 75.0647 57.32 69.7069 59.0054C65.4135 60.3714 61.546 62.802 58.3703 66.1018C55.6382 68.9758 53.8996 71.7967 52.2319 76.1255C50.3513 80.951 49.6417 82.0155 42.4211 90.9393C39.9728 93.9552 38.11 96.1019 37.3471 96.7406C35.8746 97.9825 33.9053 99.0292 31.8296 99.6501C30.4103 100.076 29.9491 100.129 27.6605 100.147C25.3541 100.147 24.9283 100.094 23.4913 99.6501C19.1447 98.3373 15.9336 95.6052 14.0885 91.6844C13.0595 89.52 12.8466 88.4378 12.8466 85.3508C12.8466 82.9735 12.8998 82.4236 13.2724 81.2704C14.7981 76.3561 18.577 72.5063 23.4026 70.9628C27.8556 69.5258 32.2199 70.1467 36.3004 72.7902C37.968 73.8901 39.1212 74.9723 40.7002 76.9238C41.4808 77.8996 42.1372 78.556 42.2614 78.5028C42.3678 78.4496 43.6629 77.0303 45.1 75.3626C46.537 73.6772 48.2934 71.6902 48.9853 70.9274C50.0143 69.8097 50.2094 69.5081 50.0852 69.2242C49.7659 68.5323 47.2466 65.747 45.7564 64.4519C42.0662 61.223 37.7729 59.0763 33.3021 58.2248C31.1555 57.8167 27.3056 57.6393 25.1767 57.8522Z" fill="#DE6333"/>
</svg>
